<svg xmlns="http://www.w3.org/2000/svg" viewBox="0 0 100 100" width="100" height="100">
  <circle cx="50" cy="50" r="48" fill="#0052FF"/>
  <path d="M50 20c-16.6 0-30 13.4-30 30 0 5.5 1.5 10.7 4.1 15.2l12.3-7.1c-1.4-2.4-2.2-5.2-2.2-8.1 0-8.8 7.2-16 16-16s16 7.2 16 16c0 4.1-1.6 7.9-4.1 10.7l12.3 7.1c5.2-5 8.4-12 8.4-19.8 0-16.6-13.4-30-30-30z" fill="#FF9900"/>
  <path d="M50 20c8.3 0 15.8 3.4 21.2 8.8l-12.3 7.1C55.6 33.7 52.9 33 50 33c-8.8 0-16 7.2-16 16 0 2.9.8 5.7 2.2 8.1l-12.3 7.1C21.3 59.7 20 55 20 50c0-16.6 13.4-30 30-30z" fill="#33CC33"/>
  <path d="M50 33c8.8 0 16 7.2 16 16 0 8.8-7.2 16-16 16s-16-7.2-16-16c0-2.9.8-5.7 2.2-8.1L23.9 33.8C21.4 38.3 20 43.5 20 50c0 16.6 13.4 30 30 30s30-13.4 30-30-13.4-30-30-30v13z" fill="#3399FF"/>
</svg>